<?xml version="1.0" encoding="utf-8"?>
<!-- Generator: Adobe Illustrator 24.0.0, SVG Export Plug-In . SVG Version: 6.00 Build 0)  -->
<svg version="1.1" id="Capa_1" xmlns="http://www.w3.org/2000/svg" xmlns:xlink="http://www.w3.org/1999/xlink" x="0px" y="0px"
	 viewBox="0 0 254.8 81.2" style="enable-background:new 0 0 254.8 81.2;" xml:space="preserve">
<style type="text/css">
	.st0{fill:#79242F;}
</style>
<g>
	<path class="st0" d="M173,9.7c0.3,0.4,0.7,0.7,1.2,1c0.5,0.2,1.1,0.3,1.9,0.3c0.8,0,1.4-0.1,1.9-0.3c0.5-0.2,0.9-0.6,1.2-1
		c0.3-0.4,0.5-0.9,0.6-1.5c0.1-0.6,0.2-1.2,0.2-2V0.4c-0.2,0-0.4,0-0.5-0.1c-0.2,0-0.4,0-0.5,0c-0.2,0-0.3,0-0.5,0
		c-0.2,0-0.4,0-0.6,0.1v5.5c0,0.6,0,1.1-0.1,1.5c0,0.4-0.1,0.8-0.3,1.1c-0.1,0.3-0.3,0.5-0.5,0.6c-0.2,0.1-0.5,0.2-0.9,0.2
		c-0.4,0-0.7-0.1-0.9-0.2c-0.2-0.1-0.4-0.3-0.6-0.6c-0.1-0.3-0.2-0.6-0.3-1.1c0-0.4-0.1-0.9-0.1-1.5V0.4c-0.2,0-0.4,0-0.5-0.1
		c-0.2,0-0.3,0-0.5,0c-0.2,0-0.4,0-0.5,0c-0.2,0-0.4,0-0.5,0.1v5.9c0,0.7,0.1,1.4,0.2,2C172.5,8.8,172.7,9.3,173,9.7z"/>
	<path class="st0" d="M184.5,10.9v-4c0-0.4,0-0.7,0.1-1c0.1-0.3,0.2-0.5,0.3-0.6c0.1-0.1,0.3-0.2,0.5-0.3c0.2,0,0.3-0.1,0.5-0.1
		c0.4,0,0.7,0.1,0.8,0.4c0.2,0.3,0.2,0.7,0.2,1.2v4.3c0.4,0.1,0.7,0.1,1,0.1c0.3,0,0.7,0,1-0.1V6c0-1-0.2-1.7-0.7-2.2
		c-0.4-0.5-1.1-0.7-1.9-0.7c-0.3,0-0.5,0-0.7,0.1c-0.2,0.1-0.4,0.2-0.6,0.3c-0.2,0.1-0.3,0.2-0.5,0.4c-0.1,0.1-0.3,0.3-0.4,0.4
		c0-0.1,0-0.2,0-0.2c0-0.1,0-0.2-0.1-0.3c0-0.1,0-0.2-0.1-0.3c0-0.1-0.1-0.2-0.1-0.2c-0.1,0-0.3-0.1-0.4-0.1c-0.1,0-0.3,0-0.4,0
		s-0.3,0-0.5,0c-0.1,0-0.3,0-0.4,0.1v7.6c0.4,0.1,0.7,0.1,1,0.1C183.8,11,184.2,10.9,184.5,10.9z"/>
	<path class="st0" d="M192.1,2.1c0.2,0,0.4,0,0.5,0c0.2,0,0.3,0,0.5,0c0.2,0,0.4,0,0.5-0.1c0-0.2,0-0.3,0.1-0.5c0-0.2,0-0.3,0-0.5
		c0-0.2,0-0.3,0-0.5c0-0.2,0-0.3-0.1-0.5c-0.2,0-0.3-0.1-0.5-0.1c-0.2,0-0.4,0-0.5,0c-0.2,0-0.3,0-0.5,0c-0.2,0-0.4,0-0.5,0.1
		c-0.1,0.3-0.1,0.7-0.1,1c0,0.3,0,0.6,0.1,1C191.7,2.1,191.9,2.1,192.1,2.1z"/>
	<path class="st0" d="M190.9,4.9h1v6c0.4,0.1,0.7,0.1,1,0.1c0.3,0,0.7,0,1-0.1V3.3h-3c-0.1,0.3-0.1,0.5-0.1,0.8c0,0.1,0,0.3,0,0.4
		C190.8,4.6,190.8,4.8,190.9,4.9z"/>
	<path class="st0" d="M198.7,10.9c0.2,0,0.4,0,0.5,0c0.1,0,0.3,0,0.5,0c0.2,0,0.4,0,0.6-0.1l2.9-7.5c-0.2,0-0.5-0.1-0.7-0.1
		c-0.2,0-0.4,0-0.5,0c-0.2,0-0.4,0-0.6,0c-0.2,0-0.4,0-0.5,0.1l-1.6,5.6l-1.7-5.6c-0.2,0-0.3-0.1-0.5-0.1c-0.2,0-0.4,0-0.6,0
		c-0.1,0-0.3,0-0.5,0c-0.2,0-0.4,0-0.7,0.1l2.8,7.5C198.4,10.9,198.5,10.9,198.7,10.9z"/>
	<path class="st0" d="M204.9,9.9c0.3,0.3,0.7,0.6,1.2,0.8c0.5,0.2,1.1,0.3,1.8,0.3c1,0,1.8-0.1,2.6-0.4c0-0.3-0.1-0.6-0.1-0.9
		c-0.1-0.3-0.2-0.5-0.3-0.7c-0.3,0.1-0.6,0.2-1,0.3c-0.3,0.1-0.7,0.1-1,0.1c-0.6,0-1.1-0.1-1.5-0.4c-0.4-0.3-0.6-0.7-0.6-1.3h4.9
		c0-0.1,0-0.3,0.1-0.4s0-0.4,0-0.5c0-0.5-0.1-1-0.2-1.4c-0.1-0.4-0.4-0.8-0.7-1.1c-0.3-0.3-0.6-0.6-1-0.8c-0.4-0.2-0.9-0.3-1.4-0.3
		c-0.6,0-1.1,0.1-1.6,0.3c-0.5,0.2-0.8,0.5-1.1,0.9c-0.3,0.4-0.5,0.8-0.7,1.3c-0.2,0.5-0.2,1-0.2,1.6c0,0.6,0.1,1.1,0.2,1.6
		C204.4,9.2,204.6,9.6,204.9,9.9z M206.5,5.1c0.3-0.3,0.6-0.4,1.1-0.4c0.4,0,0.8,0.1,1,0.4c0.2,0.3,0.4,0.7,0.4,1.1h-3
		C206.1,5.8,206.3,5.4,206.5,5.1z"/>
	<path class="st0" d="M214.1,11c0.2,0,0.3,0,0.5,0c0.2,0,0.4,0,0.5-0.1V7.3c0-0.5,0.1-0.9,0.2-1.2c0.1-0.3,0.3-0.5,0.5-0.7
		c0.2-0.1,0.4-0.2,0.6-0.3c0.2,0,0.4-0.1,0.6-0.1c0,0,0.1,0,0.2,0c0.1,0,0.3,0,0.4,0c0-0.2,0.1-0.4,0.1-0.6s0-0.4,0-0.5
		c0-0.1,0-0.3,0-0.4s0-0.2,0-0.3c-0.1,0-0.2,0-0.3,0c-0.1,0-0.2,0-0.3,0c-0.5,0-0.9,0.1-1.2,0.4c-0.3,0.2-0.6,0.5-0.8,0.8
		c0-0.1,0-0.2,0-0.3c0-0.1,0-0.2-0.1-0.3c0-0.1,0-0.2-0.1-0.3c0-0.1-0.1-0.2-0.1-0.2c-0.1,0-0.3-0.1-0.4-0.1c-0.1,0-0.3,0-0.4,0
		c-0.2,0-0.3,0-0.4,0c-0.1,0-0.3,0-0.4,0.1v7.6c0.2,0,0.4,0,0.5,0.1C213.7,11,213.9,11,214.1,11z"/>
	<path class="st0" d="M219.8,11c0.2,0,0.4,0.1,0.6,0.1c0.2,0,0.4,0,0.6,0c0.5,0,1-0.1,1.4-0.2c0.4-0.1,0.8-0.3,1-0.5
		c0.3-0.2,0.5-0.5,0.7-0.8c0.2-0.3,0.2-0.6,0.2-1c0-0.4,0-0.6-0.1-0.9c-0.1-0.2-0.2-0.4-0.4-0.6c-0.2-0.2-0.3-0.3-0.6-0.4
		c-0.2-0.1-0.5-0.2-0.7-0.3L221.7,6c-0.2-0.1-0.4-0.2-0.6-0.2c-0.1-0.1-0.2-0.2-0.2-0.5c0-0.2,0.1-0.4,0.3-0.5
		c0.2-0.1,0.4-0.2,0.8-0.2c0.3,0,0.6,0,0.9,0.1c0.3,0.1,0.5,0.2,0.8,0.3c0.1-0.2,0.2-0.4,0.3-0.7c0.1-0.3,0.1-0.5,0.1-0.8
		c-0.4-0.1-0.8-0.2-1.1-0.3c-0.4-0.1-0.7-0.1-1.1-0.1c-0.9,0-1.6,0.2-2.2,0.6c-0.5,0.4-0.8,1-0.8,1.7c0,0.6,0.2,1.1,0.5,1.4
		c0.3,0.3,0.7,0.5,1.3,0.7l0.9,0.3c0.3,0.1,0.5,0.2,0.6,0.3c0.1,0.1,0.2,0.3,0.2,0.5c0,0.2,0,0.3-0.1,0.4c-0.1,0.1-0.2,0.2-0.3,0.2
		c-0.1,0.1-0.3,0.1-0.4,0.1c-0.2,0-0.3,0-0.4,0c-0.3,0-0.6,0-0.9-0.1c-0.3-0.1-0.6-0.2-0.9-0.3c-0.1,0.3-0.2,0.5-0.3,0.8
		c-0.1,0.3-0.1,0.5-0.1,0.8c0.2,0.1,0.4,0.1,0.6,0.2C219.4,10.9,219.6,10.9,219.8,11z"/>
	<path class="st0" d="M225.7,4.9h1v6c0.4,0.1,0.7,0.1,1,0.1c0.3,0,0.7,0,1-0.1V3.3h-3c-0.1,0.3-0.1,0.5-0.1,0.8c0,0.1,0,0.3,0,0.4
		C225.6,4.6,225.7,4.8,225.7,4.9z"/>
	<path class="st0" d="M226.9,2.1c0.2,0,0.4,0,0.5,0c0.2,0,0.3,0,0.5,0c0.2,0,0.4,0,0.5-0.1c0-0.2,0-0.3,0.1-0.5c0-0.2,0-0.3,0-0.5
		c0-0.2,0-0.3,0-0.5c0-0.2,0-0.3-0.1-0.5c-0.2,0-0.3-0.1-0.5-0.1c-0.2,0-0.4,0-0.5,0c-0.2,0-0.3,0-0.5,0c-0.2,0-0.4,0-0.5,0.1
		c-0.1,0.3-0.1,0.7-0.1,1c0,0.3,0,0.6,0.1,1C226.5,2.1,226.7,2.1,226.9,2.1z"/>
	<path class="st0" d="M231.9,10.2c0.4,0.3,0.8,0.5,1.2,0.7c0.5,0.1,1,0.2,1.5,0.2c0.7,0,1.2,0,1.7-0.1c0.5-0.1,0.9-0.2,1.4-0.3V0.2
		c-0.2,0-0.4,0-0.5-0.1c-0.2,0-0.3,0-0.5,0s-0.3,0-0.5,0c-0.2,0-0.3,0-0.5,0.1v3.1c-0.2,0-0.4-0.1-0.5-0.1c-0.2,0-0.4,0-0.5,0
		c-0.6,0-1.1,0.1-1.6,0.3c-0.5,0.2-0.9,0.5-1.2,0.9c-0.3,0.4-0.6,0.8-0.8,1.3c-0.2,0.5-0.3,1-0.3,1.6c0,0.7,0.1,1.3,0.3,1.8
		C231.3,9.5,231.5,9.9,231.9,10.2z M233,6.3c0.1-0.3,0.2-0.6,0.3-0.8c0.2-0.2,0.4-0.4,0.6-0.5c0.2-0.1,0.5-0.2,0.8-0.2
		c0.2,0,0.3,0,0.5,0c0.1,0,0.3,0,0.5,0.1v4.3c-0.2,0-0.3,0.1-0.5,0.1c-0.1,0-0.3,0-0.5,0c-0.3,0-0.5,0-0.8-0.1
		c-0.2-0.1-0.4-0.2-0.6-0.4c-0.2-0.2-0.3-0.4-0.4-0.7c-0.1-0.3-0.1-0.6-0.1-1C232.9,6.9,232.9,6.6,233,6.3z"/>
	<path class="st0" d="M243.1,11c0.6,0,1.2,0,1.7-0.1c0.5-0.1,0.9-0.2,1.2-0.3V6.2c0-1.1-0.3-1.9-0.9-2.3c-0.6-0.5-1.4-0.7-2.4-0.7
		c-0.4,0-0.8,0-1.2,0.1c-0.4,0.1-0.9,0.2-1.3,0.3c0,0.3,0,0.6,0.1,0.8c0.1,0.2,0.2,0.5,0.3,0.7c0.6-0.2,1.2-0.3,1.7-0.3
		c0.2,0,0.5,0,0.7,0c0.2,0,0.4,0.1,0.5,0.2c0.1,0.1,0.2,0.2,0.3,0.3c0.1,0.1,0.1,0.3,0.1,0.6v0.2c-0.3,0-0.7,0-0.9,0
		c-0.4,0-0.8,0-1.2,0.1c-0.4,0.1-0.7,0.2-1.1,0.4c-0.3,0.2-0.6,0.4-0.8,0.8c-0.2,0.3-0.3,0.7-0.3,1.2c0,0.5,0.1,0.9,0.2,1.2
		c0.2,0.3,0.4,0.6,0.7,0.8c0.3,0.2,0.7,0.4,1.1,0.4C242.1,11,242.6,11,243.1,11z M242.1,7.6c0.3-0.2,0.7-0.3,1.1-0.3
		c0.1,0,0.2,0,0.4,0c0.1,0,0.3,0,0.4,0.1v1.9c-0.1,0-0.2,0-0.4,0.1c-0.1,0-0.3,0-0.4,0c-0.1,0-0.3,0-0.4,0c-0.2,0-0.3-0.1-0.5-0.1
		c-0.2-0.1-0.3-0.2-0.4-0.3c-0.1-0.1-0.2-0.3-0.2-0.6C241.6,8,241.8,7.8,242.1,7.6z"/>
	<path class="st0" d="M254.3,0.1c-0.2,0-0.3,0-0.5,0s-0.3,0-0.5,0c-0.2,0-0.3,0-0.5,0.1v3.1c-0.2,0-0.4-0.1-0.5-0.1
		c-0.2,0-0.4,0-0.5,0c-0.6,0-1.1,0.1-1.6,0.3c-0.5,0.2-0.9,0.5-1.2,0.9c-0.3,0.4-0.6,0.8-0.8,1.3c-0.2,0.5-0.3,1-0.3,1.6
		c0,0.7,0.1,1.3,0.3,1.8c0.2,0.5,0.5,0.9,0.9,1.2c0.4,0.3,0.8,0.5,1.2,0.7c0.5,0.1,1,0.2,1.5,0.2c0.7,0,1.2,0,1.7-0.1
		c0.5-0.1,0.9-0.2,1.4-0.3V0.2C254.6,0.2,254.4,0.1,254.3,0.1z M252.7,9.2c-0.2,0-0.3,0.1-0.5,0.1c-0.1,0-0.3,0-0.5,0
		c-0.3,0-0.5,0-0.8-0.1c-0.2-0.1-0.4-0.2-0.6-0.4c-0.2-0.2-0.3-0.4-0.4-0.7c-0.1-0.3-0.1-0.6-0.1-1c0-0.3,0-0.6,0.1-0.9
		c0.1-0.3,0.2-0.6,0.3-0.8c0.2-0.2,0.4-0.4,0.6-0.5c0.2-0.1,0.5-0.2,0.8-0.2c0.2,0,0.3,0,0.5,0c0.1,0,0.3,0,0.5,0.1V9.2z"/>
	<path class="st0" d="M178,39.6v3.7c-0.1,0-0.2,0-0.4,0.1c-0.1,0-0.3,0-0.4,0c-1,0-1.7-0.3-2.2-0.9c-0.5-0.6-0.7-1.5-0.7-2.7
		c0-1.2,0.3-2.1,0.8-2.7c0.5-0.6,1.2-0.9,2.2-0.9c0.4,0,0.7,0,0.9,0.1c0.3,0,0.6,0.1,0.9,0.2c0.1-0.3,0.2-0.6,0.3-0.8
		c0.1-0.3,0.2-0.6,0.2-0.9c-0.4-0.2-0.9-0.3-1.3-0.4c-0.4-0.1-0.8-0.1-1.3-0.1c-0.8,0-1.5,0.1-2.1,0.4c-0.6,0.3-1.1,0.7-1.6,1.1
		c-0.4,0.5-0.7,1.1-1,1.7c-0.2,0.7-0.3,1.4-0.3,2.2c0,0.8,0.1,1.5,0.3,2.2c0.2,0.7,0.5,1.2,1,1.7c0.4,0.5,1,0.9,1.6,1.1
		c0.6,0.3,1.4,0.4,2.3,0.4c0.4,0,0.9,0,1.4-0.1c0.6-0.1,1.1-0.2,1.6-0.4v-5.2c-0.4-0.1-0.7-0.1-1.1-0.1
		C178.7,39.5,178.4,39.6,178,39.6z"/>
	<path class="st0" d="M183.3,37.4c-0.3,0-0.7,0-1,0.1v4.1c0,0.8,0.1,1.5,0.3,1.9c0.2,0.5,0.5,0.9,0.8,1.1c0.3,0.3,0.7,0.4,1.2,0.5
		c0.5,0.1,0.9,0.1,1.4,0.1c0.6,0,1.1-0.1,1.6-0.2c0.5-0.1,0.9-0.2,1.2-0.3v-7.3c-0.4-0.1-0.7-0.1-1-0.1c-0.3,0-0.7,0-1,0.1v5.9
		c-0.2,0.1-0.5,0.1-0.9,0.1c-0.3,0-0.5,0-0.7-0.1c-0.2-0.1-0.4-0.2-0.5-0.3c-0.1-0.2-0.2-0.4-0.3-0.6c-0.1-0.3-0.1-0.6-0.1-1v-4
		C184,37.5,183.7,37.4,183.3,37.4z"/>
	<path class="st0" d="M192.8,45.1c0.4,0.1,0.9,0.1,1.4,0.1c0.6,0,1.2,0,1.7-0.1c0.5-0.1,0.9-0.2,1.2-0.3v-4.4c0-1.1-0.3-1.9-0.9-2.3
		c-0.6-0.5-1.4-0.7-2.4-0.7c-0.4,0-0.8,0-1.2,0.1s-0.9,0.2-1.3,0.3c0,0.3,0,0.6,0.1,0.8c0.1,0.2,0.2,0.5,0.3,0.7
		c0.6-0.2,1.2-0.3,1.7-0.3c0.2,0,0.5,0,0.7,0c0.2,0,0.4,0.1,0.5,0.2c0.1,0.1,0.2,0.2,0.3,0.3c0.1,0.1,0.1,0.3,0.1,0.6v0.2
		c-0.3,0-0.7,0-0.9,0c-0.4,0-0.8,0-1.2,0.1c-0.4,0.1-0.7,0.2-1.1,0.4c-0.3,0.2-0.6,0.4-0.8,0.8c-0.2,0.3-0.3,0.7-0.3,1.2
		c0,0.5,0.1,0.9,0.2,1.2c0.2,0.3,0.4,0.6,0.7,0.8C192,44.9,192.3,45,192.8,45.1z M193.1,41.8c0.3-0.2,0.7-0.3,1.1-0.3
		c0.1,0,0.2,0,0.4,0c0.1,0,0.3,0,0.4,0.1v1.9c-0.1,0-0.2,0-0.4,0.1c-0.1,0-0.3,0-0.4,0c-0.1,0-0.3,0-0.4,0c-0.2,0-0.3-0.1-0.5-0.1
		c-0.2-0.1-0.3-0.2-0.4-0.3s-0.2-0.3-0.2-0.6C192.7,42.2,192.8,42,193.1,41.8z"/>
	<path class="st0" d="M202.8,45.2c0.7,0,1.2,0,1.7-0.1c0.5-0.1,0.9-0.2,1.4-0.3V34.4c-0.2,0-0.4,0-0.5-0.1c-0.2,0-0.3,0-0.5,0
		s-0.3,0-0.5,0c-0.2,0-0.3,0-0.5,0.1v3.1c-0.2,0-0.4-0.1-0.5-0.1c-0.2,0-0.4,0-0.5,0c-0.6,0-1.1,0.1-1.6,0.3
		c-0.5,0.2-0.9,0.5-1.2,0.9c-0.3,0.4-0.6,0.8-0.8,1.3c-0.2,0.5-0.3,1-0.3,1.6c0,0.7,0.1,1.3,0.3,1.8c0.2,0.5,0.5,0.9,0.9,1.2
		c0.4,0.3,0.8,0.5,1.2,0.7C201.8,45.2,202.3,45.2,202.8,45.2z M201,41.4c0-0.3,0-0.6,0.1-0.9c0.1-0.3,0.2-0.6,0.3-0.8
		c0.2-0.2,0.4-0.4,0.6-0.5c0.2-0.1,0.5-0.2,0.8-0.2c0.2,0,0.3,0,0.5,0c0.1,0,0.3,0,0.5,0.1v4.3c-0.2,0-0.3,0.1-0.5,0.1s-0.3,0-0.5,0
		c-0.3,0-0.5,0-0.8-0.1c-0.2-0.1-0.4-0.2-0.6-0.4c-0.2-0.2-0.3-0.4-0.4-0.7C201.1,42.1,201,41.8,201,41.4z"/>
	<path class="st0" d="M208.8,44.7c0.3,0.2,0.7,0.4,1.1,0.4c0.4,0.1,0.9,0.1,1.4,0.1c0.6,0,1.2,0,1.7-0.1c0.5-0.1,0.9-0.2,1.2-0.3
		v-4.4c0-1.1-0.3-1.9-0.9-2.3c-0.6-0.5-1.4-0.7-2.4-0.7c-0.4,0-0.8,0-1.2,0.1c-0.4,0.1-0.9,0.2-1.3,0.3c0,0.3,0,0.6,0.1,0.8
		c0.1,0.2,0.2,0.5,0.3,0.7c0.6-0.2,1.2-0.3,1.7-0.3c0.2,0,0.5,0,0.7,0c0.2,0,0.4,0.1,0.5,0.2c0.1,0.1,0.2,0.2,0.3,0.3
		c0.1,0.1,0.1,0.3,0.1,0.6v0.2c-0.3,0-0.7,0-0.9,0c-0.4,0-0.8,0-1.2,0.1c-0.4,0.1-0.7,0.2-1.1,0.4c-0.3,0.2-0.6,0.4-0.8,0.8
		c-0.2,0.3-0.3,0.7-0.3,1.2c0,0.5,0.1,0.9,0.2,1.2C208.3,44.2,208.5,44.5,208.8,44.7z M210.2,41.8c0.3-0.2,0.7-0.3,1.1-0.3
		c0.1,0,0.2,0,0.4,0c0.1,0,0.3,0,0.4,0.1v1.9c-0.1,0-0.2,0-0.4,0.1c-0.1,0-0.3,0-0.4,0c-0.1,0-0.3,0-0.4,0c-0.2,0-0.3-0.1-0.5-0.1
		c-0.2-0.1-0.3-0.2-0.4-0.3s-0.2-0.3-0.2-0.6C209.8,42.2,209.9,42,210.2,41.8z"/>
	<path class="st0" d="M217.4,34.3c-0.3,0-0.7,0-1,0.1v8.1c0,0.9,0.2,1.6,0.7,2c0.5,0.4,1.1,0.6,1.8,0.6c0.2,0,0.4,0,0.6,0
		c0.2,0,0.4-0.1,0.6-0.1c0-0.1,0-0.1,0-0.2c0-0.1,0-0.1,0-0.2c0-0.4-0.1-0.8-0.2-1.2c-0.1,0-0.2,0-0.3,0c-0.1,0-0.2,0-0.3,0
		c-0.2,0-0.3,0-0.4-0.1c-0.1,0-0.2-0.1-0.3-0.2c-0.1-0.1-0.1-0.2-0.2-0.4c0-0.2-0.1-0.4-0.1-0.7v-7.7
		C218,34.3,217.7,34.3,217.4,34.3z"/>
	<path class="st0" d="M224.5,45.2c0.6,0,1.2,0,1.7-0.1c0.5-0.1,0.9-0.2,1.2-0.3v-4.4c0-1.1-0.3-1.9-0.9-2.3
		c-0.6-0.5-1.4-0.7-2.4-0.7c-0.4,0-0.8,0-1.2,0.1c-0.4,0.1-0.9,0.2-1.3,0.3c0,0.3,0,0.6,0.1,0.8c0.1,0.2,0.2,0.5,0.3,0.7
		c0.6-0.2,1.2-0.3,1.7-0.3c0.2,0,0.5,0,0.7,0c0.2,0,0.4,0.1,0.5,0.2c0.1,0.1,0.2,0.2,0.3,0.3c0.1,0.1,0.1,0.3,0.1,0.6v0.2
		c-0.3,0-0.7,0-0.9,0c-0.4,0-0.8,0-1.2,0.1c-0.4,0.1-0.7,0.2-1.1,0.4c-0.3,0.2-0.6,0.4-0.8,0.8c-0.2,0.3-0.3,0.7-0.3,1.2
		c0,0.5,0.1,0.9,0.2,1.2c0.2,0.3,0.4,0.6,0.7,0.8c0.3,0.2,0.7,0.4,1.1,0.4C223.5,45.2,224,45.2,224.5,45.2z M223.5,41.8
		c0.3-0.2,0.7-0.3,1.1-0.3c0.1,0,0.2,0,0.4,0c0.1,0,0.3,0,0.4,0.1v1.9c-0.1,0-0.2,0-0.4,0.1c-0.1,0-0.3,0-0.4,0c-0.1,0-0.3,0-0.4,0
		c-0.2,0-0.3-0.1-0.5-0.1c-0.2-0.1-0.3-0.2-0.4-0.3s-0.2-0.3-0.2-0.6C223,42.2,223.2,42,223.5,41.8z"/>
	<path class="st0" d="M230,45.6c-0.1,0.2-0.1,0.3-0.2,0.4c-0.1,0.1-0.2,0.2-0.4,0.2c-0.1,0-0.3,0.1-0.4,0.1c-0.1,0-0.3,0-0.4,0
		c-0.1,0-0.3,0-0.4-0.1c-0.1,0.2-0.2,0.5-0.2,0.7c0,0.2-0.1,0.5-0.1,0.8c0.2,0,0.4,0.1,0.7,0.1c0.3,0,0.5,0,0.7,0
		c0.9,0,1.6-0.2,2-0.6c0.5-0.4,0.7-1.1,0.7-2v-7.7h-3c-0.1,0.3-0.1,0.5-0.1,0.8c0,0.1,0,0.3,0,0.4c0,0.1,0,0.3,0.1,0.4h1v5.8
		C230.1,45.2,230,45.4,230,45.6z"/>
	<path class="st0" d="M230.3,36.3c0.2,0,0.4,0,0.5,0c0.1,0,0.3,0,0.5,0c0.2,0,0.4,0,0.6-0.1c0-0.2,0.1-0.4,0.1-0.5
		c0-0.1,0-0.3,0-0.4c0-0.2,0-0.3,0-0.4c0-0.1,0-0.3-0.1-0.5c-0.2,0-0.4-0.1-0.6-0.1c-0.2,0-0.4,0-0.5,0c-0.1,0-0.3,0-0.5,0
		c-0.2,0-0.4,0.1-0.6,0.1c0,0.2-0.1,0.4-0.1,0.5c0,0.1,0,0.3,0,0.4c0,0.1,0,0.3,0,0.4c0,0.1,0,0.3,0.1,0.5
		C229.9,36.3,230.1,36.3,230.3,36.3z"/>
	<path class="st0" d="M237.1,37.3c-0.4,0-0.8,0-1.2,0.1c-0.4,0.1-0.9,0.2-1.3,0.3c0,0.3,0,0.6,0.1,0.8c0.1,0.2,0.2,0.5,0.3,0.7
		c0.6-0.2,1.2-0.3,1.7-0.3c0.2,0,0.5,0,0.7,0s0.4,0.1,0.5,0.2c0.1,0.1,0.2,0.2,0.3,0.3c0.1,0.1,0.1,0.3,0.1,0.6v0.2
		c-0.3,0-0.7,0-0.9,0c-0.4,0-0.8,0-1.2,0.1c-0.4,0.1-0.7,0.2-1.1,0.4c-0.3,0.2-0.6,0.4-0.8,0.8c-0.2,0.3-0.3,0.7-0.3,1.2
		c0,0.5,0.1,0.9,0.2,1.2c0.2,0.3,0.4,0.6,0.7,0.8c0.3,0.2,0.7,0.4,1.1,0.4c0.4,0.1,0.9,0.1,1.4,0.1c0.6,0,1.2,0,1.7-0.1
		c0.5-0.1,0.9-0.2,1.2-0.3v-4.4c0-1.1-0.3-1.9-0.9-2.3S238.1,37.3,237.1,37.3z M238.3,43.5c-0.1,0-0.2,0-0.4,0.1c-0.1,0-0.3,0-0.4,0
		c-0.1,0-0.3,0-0.4,0c-0.2,0-0.3-0.1-0.5-0.1c-0.2-0.1-0.3-0.2-0.4-0.3c-0.1-0.1-0.2-0.3-0.2-0.6c0-0.4,0.1-0.7,0.4-0.8
		c0.3-0.2,0.7-0.3,1.1-0.3c0.1,0,0.2,0,0.4,0c0.1,0,0.3,0,0.4,0.1V43.5z"/>
	<path class="st0" d="M246.7,39.3c0.1,0,0.3,0,0.4,0c0-0.2,0.1-0.4,0.1-0.6c0-0.2,0-0.4,0-0.5c0-0.1,0-0.3,0-0.4c0-0.1,0-0.2,0-0.3
		c-0.1,0-0.2,0-0.3,0c-0.1,0-0.2,0-0.3,0c-0.5,0-0.9,0.1-1.2,0.4c-0.3,0.2-0.6,0.5-0.8,0.8c0-0.1,0-0.2,0-0.3c0-0.1,0-0.2-0.1-0.3
		c0-0.1,0-0.2-0.1-0.3c0-0.1-0.1-0.2-0.1-0.2c-0.1,0-0.3-0.1-0.4-0.1c-0.1,0-0.3,0-0.4,0c-0.2,0-0.3,0-0.4,0c-0.1,0-0.3,0-0.4,0.1
		v7.6c0.2,0,0.4,0,0.5,0.1c0.2,0,0.3,0,0.5,0s0.3,0,0.5,0c0.2,0,0.4,0,0.5-0.1v-3.6c0-0.5,0.1-0.9,0.2-1.2c0.1-0.3,0.3-0.5,0.5-0.7
		c0.2-0.1,0.4-0.2,0.6-0.3c0.2,0,0.4-0.1,0.6-0.1C246.5,39.3,246.6,39.3,246.7,39.3z"/>
	<path class="st0" d="M251.3,37.3c-0.4,0-0.8,0-1.2,0.1c-0.4,0.1-0.9,0.2-1.3,0.3c0,0.3,0,0.6,0.1,0.8c0.1,0.2,0.2,0.5,0.3,0.7
		c0.6-0.2,1.2-0.3,1.7-0.3c0.2,0,0.5,0,0.7,0c0.2,0,0.4,0.1,0.5,0.2c0.1,0.1,0.2,0.2,0.3,0.3c0.1,0.1,0.1,0.3,0.1,0.6v0.2
		c-0.3,0-0.7,0-0.9,0c-0.4,0-0.8,0-1.2,0.1c-0.4,0.1-0.7,0.2-1.1,0.4c-0.3,0.2-0.6,0.4-0.8,0.8c-0.2,0.3-0.3,0.7-0.3,1.2
		c0,0.5,0.1,0.9,0.2,1.2c0.2,0.3,0.4,0.6,0.7,0.8c0.3,0.2,0.7,0.4,1.1,0.4c0.4,0.1,0.9,0.1,1.4,0.1c0.6,0,1.2,0,1.7-0.1
		s0.9-0.2,1.2-0.3v-4.4c0-1.1-0.3-1.9-0.9-2.3C253.1,37.6,252.4,37.3,251.3,37.3z M252.6,43.5c-0.1,0-0.2,0-0.4,0.1
		c-0.1,0-0.3,0-0.4,0c-0.1,0-0.3,0-0.4,0c-0.2,0-0.3-0.1-0.5-0.1c-0.2-0.1-0.3-0.2-0.4-0.3c-0.1-0.1-0.2-0.3-0.2-0.6
		c0-0.4,0.1-0.7,0.4-0.8c0.3-0.2,0.7-0.3,1.1-0.3c0.1,0,0.2,0,0.4,0c0.1,0,0.3,0,0.4,0.1V43.5z"/>
	<path class="st0" d="M173.7,28l0.6-2.1h3.5l0.6,2.1c0.4,0.1,0.7,0.1,1.1,0.1c0.4,0,0.8,0,1.2-0.1l-3.3-10.5c-0.2,0-0.4-0.1-0.6-0.1
		c-0.2,0-0.4,0-0.6,0c-0.2,0-0.4,0-0.6,0c-0.2,0-0.4,0-0.6,0.1L171.6,28c0.4,0.1,0.7,0.1,1.1,0.1C173,28.1,173.4,28.1,173.7,28z
		 M176.1,19.7l1.2,4.4h-2.5L176.1,19.7z"/>
	<path class="st0" d="M182.8,27.6c0.3,0.3,0.7,0.4,1.2,0.5c0.5,0.1,0.9,0.1,1.4,0.1c0.6,0,1.1-0.1,1.6-0.2c0.5-0.1,0.9-0.2,1.2-0.3
		v-7.3c-0.4-0.1-0.7-0.1-1-0.1c-0.3,0-0.7,0-1,0.1v5.9c-0.2,0.1-0.5,0.1-0.9,0.1c-0.3,0-0.5,0-0.7-0.1c-0.2-0.1-0.4-0.2-0.5-0.3
		c-0.1-0.2-0.2-0.4-0.3-0.6c-0.1-0.3-0.1-0.6-0.1-1v-4c-0.4-0.1-0.7-0.1-1-0.1c-0.3,0-0.7,0-1,0.1v4.1c0,0.8,0.1,1.5,0.3,1.9
		C182.2,26.9,182.5,27.3,182.8,27.6z"/>
	<path class="st0" d="M191.1,27.5c0.5,0.4,1.1,0.6,2,0.6c0.5,0,0.9-0.1,1.4-0.2c0-0.1,0-0.1,0-0.2c0-0.1,0-0.2,0-0.3
		c0-0.2,0-0.3,0-0.5c0-0.2-0.1-0.4-0.1-0.6c-0.1,0-0.2,0-0.4,0.1c-0.1,0-0.3,0-0.4,0c-0.2,0-0.3,0-0.5-0.1c-0.1,0-0.3-0.1-0.3-0.2
		s-0.2-0.3-0.2-0.4c0-0.2-0.1-0.4-0.1-0.7v-3h1.8c0-0.2,0-0.3,0.1-0.4c0-0.1,0-0.3,0-0.4c0-0.1,0-0.2,0-0.4c0-0.1,0-0.2-0.1-0.4
		h-1.8v-2.2h-0.3l-2.7,3.5l0.1,0.3h0.9v3.4C190.4,26.4,190.6,27.1,191.1,27.5z"/>
	<path class="st0" d="M196.2,27.1c0.3,0.4,0.7,0.6,1.1,0.8c0.5,0.2,1,0.3,1.6,0.3c0.6,0,1.1-0.1,1.6-0.3c0.5-0.2,0.8-0.5,1.1-0.8
		c0.3-0.4,0.5-0.8,0.7-1.2c0.1-0.5,0.2-1,0.2-1.5c0-0.6-0.1-1.1-0.2-1.6c-0.1-0.5-0.4-0.9-0.7-1.3c-0.3-0.4-0.7-0.6-1.1-0.8
		c-0.5-0.2-1-0.3-1.6-0.3c-0.6,0-1.1,0.1-1.6,0.3c-0.5,0.2-0.8,0.5-1.1,0.8c-0.3,0.4-0.5,0.8-0.7,1.3s-0.2,1-0.2,1.6
		c0,0.6,0.1,1.1,0.2,1.5C195.7,26.3,195.9,26.7,196.2,27.1z M197.8,22.5c0.2-0.4,0.6-0.6,1.2-0.6c0.5,0,0.9,0.2,1.2,0.6
		c0.2,0.4,0.4,1,0.4,1.7s-0.1,1.3-0.4,1.7c-0.2,0.4-0.6,0.6-1.2,0.6c-0.5,0-0.9-0.2-1.2-0.6s-0.4-1-0.4-1.7S197.6,22.9,197.8,22.5z"
		/>
	<path class="st0" d="M199.1,17.5l-1.6,1.8c0.3,0.1,0.6,0.1,0.9,0.1c0.2,0,0.4,0,0.6,0c0.2,0,0.3,0,0.5-0.1l2.2-1.8
		c-0.2,0-0.4-0.1-0.6-0.1s-0.4,0-0.7,0C199.9,17.4,199.5,17.4,199.1,17.5z"/>
	<path class="st0" d="M209.9,28.1c0.3,0,0.7,0,1-0.1v-4.8c0-1-0.2-1.7-0.7-2.2c-0.4-0.5-1.1-0.7-1.9-0.7c-0.3,0-0.5,0-0.7,0.1
		c-0.2,0.1-0.4,0.2-0.6,0.3c-0.2,0.1-0.3,0.2-0.5,0.4c-0.1,0.1-0.3,0.3-0.4,0.4c0-0.1,0-0.2,0-0.2c0-0.1,0-0.2-0.1-0.3
		c0-0.1,0-0.2-0.1-0.3s-0.1-0.2-0.1-0.2c-0.1,0-0.3-0.1-0.4-0.1s-0.3,0-0.4,0c-0.2,0-0.3,0-0.5,0c-0.1,0-0.3,0-0.4,0.1V28
		c0.4,0.1,0.7,0.1,1,0.1c0.3,0,0.7,0,1-0.1v-4c0-0.4,0-0.7,0.1-1c0.1-0.3,0.2-0.5,0.3-0.6c0.1-0.1,0.3-0.2,0.5-0.3
		c0.2,0,0.3-0.1,0.5-0.1c0.4,0,0.7,0.1,0.8,0.4c0.2,0.3,0.2,0.7,0.2,1.2V28C209.2,28.1,209.6,28.1,209.9,28.1z"/>
	<path class="st0" d="M213.3,27.1c0.3,0.4,0.7,0.6,1.1,0.8c0.5,0.2,1,0.3,1.6,0.3c0.6,0,1.1-0.1,1.6-0.3c0.5-0.2,0.8-0.5,1.1-0.8
		c0.3-0.4,0.5-0.8,0.7-1.2c0.1-0.5,0.2-1,0.2-1.5c0-0.6-0.1-1.1-0.2-1.6c-0.1-0.5-0.4-0.9-0.7-1.3c-0.3-0.4-0.7-0.6-1.1-0.8
		c-0.5-0.2-1-0.3-1.6-0.3c-0.6,0-1.1,0.1-1.6,0.3c-0.5,0.2-0.8,0.5-1.1,0.8c-0.3,0.4-0.5,0.8-0.7,1.3c-0.2,0.5-0.2,1-0.2,1.6
		c0,0.6,0.1,1.1,0.2,1.5C212.8,26.3,213,26.7,213.3,27.1z M214.9,22.5c0.2-0.4,0.6-0.6,1.2-0.6c0.5,0,0.9,0.2,1.2,0.6
		c0.2,0.4,0.4,1,0.4,1.7s-0.1,1.3-0.4,1.7c-0.2,0.4-0.6,0.6-1.2,0.6c-0.5,0-0.9-0.2-1.2-0.6c-0.2-0.4-0.4-1-0.4-1.7
		S214.6,22.9,214.9,22.5z"/>
	<path class="st0" d="M223.5,21.1c-0.1,0.1-0.2,0.3-0.3,0.4c0-0.1,0-0.2,0-0.2c0-0.1,0-0.2-0.1-0.3c0-0.1,0-0.2-0.1-0.3
		s-0.1-0.2-0.1-0.2c-0.1,0-0.3-0.1-0.4-0.1s-0.3,0-0.4,0c-0.2,0-0.3,0-0.5,0c-0.1,0-0.3,0-0.4,0.1V28c0.4,0.1,0.7,0.1,1,0.1
		c0.3,0,0.7,0,1-0.1v-4c0-0.4,0-0.7,0.1-1c0.1-0.3,0.2-0.5,0.3-0.6c0.1-0.1,0.3-0.2,0.4-0.3c0.2,0,0.3-0.1,0.5-0.1
		c0.4,0,0.7,0.1,0.8,0.4c0.1,0.3,0.2,0.7,0.2,1.2V28c0.4,0.1,0.7,0.1,1,0.1c0.3,0,0.7,0,1-0.1v-4.1c0-0.4,0-0.7,0.1-0.9
		c0.1-0.2,0.2-0.4,0.3-0.6c0.1-0.1,0.3-0.2,0.4-0.3c0.2,0,0.3-0.1,0.5-0.1c0.4,0,0.7,0.1,0.8,0.4c0.1,0.3,0.2,0.7,0.2,1.2V28
		c0.4,0.1,0.7,0.1,1,0.1c0.3,0,0.7,0,1-0.1v-4.8c0-1-0.2-1.7-0.6-2.2c-0.4-0.5-1-0.7-1.9-0.7c-0.5,0-1,0.1-1.4,0.4
		c-0.4,0.3-0.6,0.6-0.8,0.9c-0.3-0.9-1.1-1.3-2.3-1.3c-0.3,0-0.5,0-0.7,0.1c-0.2,0.1-0.4,0.2-0.6,0.3
		C223.8,20.8,223.7,20.9,223.5,21.1z"/>
	<path class="st0" d="M237,23.2c-0.4,0-0.8,0-1.2,0.1c-0.4,0.1-0.7,0.2-1.1,0.4c-0.3,0.2-0.6,0.4-0.8,0.8c-0.2,0.3-0.3,0.7-0.3,1.2
		c0,0.5,0.1,0.9,0.2,1.2c0.2,0.3,0.4,0.6,0.7,0.8c0.3,0.2,0.7,0.4,1.1,0.4c0.4,0.1,0.9,0.1,1.4,0.1c0.6,0,1.2,0,1.7-0.1
		c0.5-0.1,0.9-0.2,1.2-0.3v-4.4c0-1.1-0.3-1.9-0.9-2.3c-0.6-0.5-1.4-0.7-2.4-0.7c-0.4,0-0.8,0-1.2,0.1c-0.4,0.1-0.9,0.2-1.3,0.3
		c0,0.3,0,0.6,0.1,0.8c0.1,0.2,0.2,0.5,0.3,0.7c0.6-0.2,1.2-0.3,1.7-0.3c0.2,0,0.5,0,0.7,0c0.2,0,0.4,0.1,0.5,0.2
		c0.1,0.1,0.2,0.2,0.3,0.3c0.1,0.1,0.1,0.3,0.1,0.6v0.2C237.6,23.2,237.3,23.2,237,23.2z M237.9,26.5c-0.1,0-0.2,0-0.4,0.1
		c-0.1,0-0.3,0-0.4,0c-0.1,0-0.3,0-0.4,0c-0.2,0-0.3-0.1-0.5-0.1c-0.2-0.1-0.3-0.2-0.4-0.3c-0.1-0.1-0.2-0.3-0.2-0.6
		c0-0.4,0.1-0.7,0.4-0.8c0.3-0.2,0.7-0.3,1.1-0.3c0.1,0,0.2,0,0.4,0c0.1,0,0.3,0,0.4,0.1V26.5z"/>
	<path class="st0" d="M244.1,23.3c-0.2,0.3-0.4,0.6-0.6,0.9c-0.1,0.4-0.2,0.7-0.2,1.2c0,0.5,0.1,1,0.2,1.3c0.2,0.4,0.4,0.6,0.6,0.9
		c0.3,0.2,0.6,0.4,0.9,0.5c0.3,0.1,0.7,0.2,1.1,0.2c0.5,0,0.9,0,1.3-0.1c0.3-0.1,0.7-0.1,1-0.2v-7.7c-0.1,0-0.3,0-0.4,0
		c-0.1,0-0.3,0-0.4,0s-0.2,0-0.4,0c-0.1,0-0.3,0-0.4,0v2.3c-0.1,0-0.3-0.1-0.4-0.1c-0.1,0-0.3,0-0.4,0c-0.4,0-0.8,0.1-1.2,0.2
		C244.6,22.8,244.3,23,244.1,23.3z M245.7,23.7c0.2-0.1,0.4-0.1,0.6-0.1c0.1,0,0.2,0,0.3,0c0.1,0,0.2,0,0.3,0.1v3.2
		c-0.1,0-0.2,0.1-0.3,0.1c-0.1,0-0.2,0-0.3,0c-0.2,0-0.4,0-0.6-0.1c-0.2-0.1-0.3-0.1-0.4-0.3c-0.1-0.1-0.2-0.3-0.3-0.5
		c-0.1-0.2-0.1-0.5-0.1-0.7c0-0.2,0-0.5,0.1-0.7c0.1-0.2,0.1-0.4,0.3-0.6C245.3,24,245.5,23.8,245.7,23.7z"/>
	<path class="st0" d="M254.1,23.2c-0.2-0.2-0.5-0.4-0.8-0.6c-0.3-0.1-0.6-0.2-1-0.2c-0.4,0-0.8,0.1-1.2,0.2s-0.6,0.4-0.8,0.6
		c-0.2,0.3-0.4,0.6-0.5,0.9s-0.2,0.7-0.2,1.1c0,0.4,0.1,0.8,0.2,1.1c0.1,0.4,0.3,0.7,0.5,0.9c0.2,0.3,0.5,0.5,0.9,0.6
		c0.4,0.1,0.8,0.2,1.3,0.2c0.7,0,1.3-0.1,1.9-0.3c0-0.2,0-0.4-0.1-0.6c-0.1-0.2-0.1-0.4-0.2-0.5c-0.2,0.1-0.5,0.2-0.7,0.2
		c-0.3,0-0.5,0.1-0.7,0.1c-0.4,0-0.8-0.1-1.1-0.3s-0.4-0.5-0.5-0.9h3.6c0-0.1,0-0.2,0-0.3c0-0.1,0-0.3,0-0.4c0-0.4-0.1-0.7-0.2-1
		C254.5,23.7,254.3,23.4,254.1,23.2z M251.2,24.7c0-0.4,0.1-0.6,0.3-0.8c0.2-0.2,0.5-0.3,0.8-0.3c0.3,0,0.6,0.1,0.7,0.3
		s0.3,0.5,0.3,0.8H251.2z"/>
	<path class="st0" d="M160.9,45.4c0.3,0.2,0.7,0.3,1.1,0.3c0.4,0,0.7-0.1,1.1-0.3c0.4-0.2,0.6-0.5,0.8-0.8c0.2-0.4,0.3-0.7,0.3-1.1
		c0-0.4-0.1-0.8-0.3-1.1c-0.2-0.4-0.5-0.6-0.8-0.8c-0.3-0.2-0.7-0.3-1.1-0.3c-0.4,0-0.7,0.1-1.1,0.3c-0.3,0.2-0.6,0.5-0.8,0.8
		c-0.2,0.4-0.3,0.7-0.3,1.1c0,0.4,0.1,0.8,0.3,1.1C160.2,44.9,160.5,45.2,160.9,45.4z M160.4,42.6c0.2-0.3,0.4-0.5,0.7-0.7
		c0.3-0.2,0.6-0.2,0.9-0.2c0.3,0,0.6,0.1,0.9,0.2c0.3,0.2,0.5,0.4,0.7,0.7c0.2,0.3,0.2,0.6,0.2,0.9c0,0.3-0.1,0.6-0.2,0.9
		c-0.2,0.3-0.4,0.5-0.7,0.7c-0.3,0.2-0.6,0.2-0.9,0.2c-0.3,0-0.6-0.1-0.9-0.2c-0.3-0.2-0.5-0.4-0.7-0.7c-0.1-0.3-0.2-0.6-0.2-0.9
		C160.2,43.2,160.3,42.9,160.4,42.6z"/>
	<path class="st0" d="M161.4,43.7h0.1c0.1,0,0.2,0,0.3,0.1c0.1,0.1,0.2,0.2,0.3,0.5l0.2,0.4h0.6l-0.3-0.5c-0.1-0.2-0.2-0.3-0.2-0.3
		c-0.1-0.1-0.1-0.1-0.2-0.2c0,0-0.1-0.1-0.2-0.1c0.2,0,0.4-0.1,0.5-0.2c0.1-0.1,0.2-0.3,0.2-0.4c0-0.1,0-0.2-0.1-0.3
		c-0.1-0.1-0.1-0.2-0.2-0.2c-0.1,0-0.2-0.1-0.4-0.1c-0.1,0-0.3,0-0.8,0H161v2.3h0.5V43.7z M161.4,42.7h0.2c0.3,0,0.4,0,0.5,0
		c0.1,0,0.1,0.1,0.2,0.1c0,0.1,0.1,0.1,0.1,0.2c0,0.1,0,0.1-0.1,0.2c0,0.1-0.1,0.1-0.2,0.1c-0.1,0-0.2,0-0.5,0h-0.2V42.7z"/>
	<path class="st0" d="M110,29.4l5.2,15.5h9.5l-3.9-10.4c1,1.7,2.3,3.3,3.8,4.7c4.6,4.3,10.5,6.4,17.7,6.4c4.6,0,9.7-0.9,15.1-2.7
		V24.7h-1.2l0.1-0.1h-11.1c3.6,2.6,3.3,7.5,3.3,7.5l0,1.9l0,0v4.3c-2,0.7-3.9,1.1-5.8,1.1c-4.6,0-8.3-1.6-11.2-4.7
		c-2.9-3.1-4.3-7.2-4.3-12.1c0-4.9,1.5-8.8,4.5-11.8c3-3,7-4.5,12-4.5c3.2,0,6.3,0.8,9.3,2.5l2.8-5.2c-4.1-2.3-8.4-3.5-13.1-3.5
		c-7.3,0-13.3,2.1-18.1,6.4c-4.7,4.3-7.1,9.8-7.1,16.4c0,1.6,0.1,3.1,0.4,4.5l-10-26.6h-6.8l0,0h-4.7c3.1,2.2,2.6,5,2.4,5.7
		L88.7,31.7c0.2-1.6,0.3-3.7,0.3-6.2V0.8h-7.9V24c0,4.6-0.3,7.8-1,9.6c-1.5,3.9-4.4,5.8-8.7,5.8c-3.4,0-5.9-1.2-7.4-3.7
		c-0.9-1.4-1.4-3.2-1.7-5.5c-0.1-1.1-0.2-3.1-0.2-5.9V0.8h-8.9v0h-3.3c2.7,1.9,3.2,5.2,3.3,6.7V25c0,3.3,0.1,5.6,0.3,6.9
		c0.3,2.5,1,4.7,2,6.4c2.9,4.9,8.1,7.4,15.5,7.4c6.7,0,11.5-2.1,14.7-6.3l-2.3,5.5h7.3l3.2-8.5C98.3,32.9,105.2,30.6,110,29.4z
		 M103.5,10.5l6,17.8c-3.4,0-8.1,0-12.7,0.1L103.5,10.5z"/>
	<path class="st0" d="M5.1,68.5c-0.3-0.1-1-0.1-2.1-0.1H0.1v8.9h1.8v-3.4h1.2c0.8,0,1.4,0,1.9-0.1c0.3-0.1,0.6-0.2,0.9-0.4
		c0.3-0.2,0.6-0.5,0.8-0.9C6.9,72.1,7,71.6,7,71.1c0-0.7-0.2-1.3-0.5-1.7C6.1,68.9,5.7,68.6,5.1,68.5z M4.9,71.8
		c-0.1,0.2-0.3,0.3-0.6,0.4c-0.2,0.1-0.7,0.1-1.4,0.1h-1v-2.5h0.9c0.7,0,1.1,0,1.3,0.1c0.3,0.1,0.5,0.2,0.7,0.4
		c0.2,0.2,0.3,0.5,0.3,0.8C5.1,71.4,5,71.6,4.9,71.8z"/>
	<path class="st0" d="M11.2,70.6c-0.6,0-1.2,0.1-1.7,0.4c-0.5,0.3-0.9,0.7-1.2,1.2c-0.3,0.5-0.4,1.1-0.4,1.7c0,0.7,0.1,1.4,0.4,1.9
		c0.3,0.5,0.7,0.9,1.2,1.2c0.5,0.3,1.1,0.4,1.7,0.4c1,0,1.8-0.3,2.4-1c0.6-0.6,0.9-1.5,0.9-2.4c0-1-0.3-1.8-0.9-2.4
		C12.9,71,12.1,70.6,11.2,70.6z M12.3,75.5C12,75.9,11.6,76,11.2,76c-0.4,0-0.8-0.2-1.1-0.5c-0.3-0.3-0.5-0.8-0.5-1.5
		c0-0.6,0.2-1.1,0.5-1.5c0.3-0.3,0.7-0.5,1.1-0.5c0.4,0,0.8,0.2,1.1,0.5c0.3,0.3,0.5,0.8,0.5,1.5C12.7,74.7,12.6,75.2,12.3,75.5z"/>
	<polygon class="st0" points="21.5,75 20.4,70.8 18.8,70.8 17.7,75 16.5,70.8 14.8,70.8 16.8,77.3 18.5,77.3 19.6,73.1 20.7,77.3 
		22.4,77.3 24.5,70.8 22.8,70.8 	"/>
	<path class="st0" d="M29.9,71.6c-0.6-0.6-1.3-1-2.3-1c-0.9,0-1.6,0.3-2.1,0.9c-0.6,0.6-0.8,1.4-0.8,2.5c0,0.9,0.2,1.6,0.6,2.2
		c0.5,0.7,1.4,1.1,2.5,1.1c0.7,0,1.3-0.2,1.8-0.5c0.5-0.3,0.8-0.8,1-1.4l-1.7-0.3c-0.1,0.3-0.2,0.6-0.4,0.7
		c-0.2,0.1-0.4,0.2-0.7,0.2c-0.4,0-0.7-0.1-1-0.4c-0.3-0.3-0.4-0.7-0.4-1.2h4.3C30.7,73.2,30.5,72.2,29.9,71.6z M26.4,73.5
		c0-0.5,0.1-0.8,0.4-1.1c0.2-0.3,0.6-0.4,0.9-0.4c0.3,0,0.6,0.1,0.9,0.4c0.2,0.3,0.4,0.6,0.4,1.1H26.4z"/>
	<path class="st0" d="M34.1,70.9c-0.2,0.1-0.5,0.4-0.7,0.9v-0.9h-1.6v6.5h1.7v-2c0-1.1,0-1.8,0.1-2.2c0.1-0.3,0.2-0.6,0.4-0.7
		c0.2-0.1,0.4-0.2,0.6-0.2c0.2,0,0.5,0.1,0.8,0.3L36,71c-0.4-0.2-0.7-0.3-1.1-0.3C34.6,70.6,34.4,70.7,34.1,70.9z"/>
	<path class="st0" d="M41.3,71.6c-0.6-0.6-1.3-1-2.3-1c-0.9,0-1.6,0.3-2.1,0.9C36.3,72.2,36,73,36,74.1c0,0.9,0.2,1.6,0.6,2.2
		c0.5,0.7,1.4,1.1,2.5,1.1c0.7,0,1.3-0.2,1.8-0.5c0.5-0.3,0.8-0.8,1-1.4l-1.7-0.3c-0.1,0.3-0.2,0.6-0.4,0.7
		c-0.2,0.1-0.4,0.2-0.7,0.2c-0.4,0-0.7-0.1-1-0.4c-0.3-0.3-0.4-0.7-0.4-1.2h4.3C42.1,73.2,41.8,72.2,41.3,71.6z M37.8,73.5
		c0-0.5,0.1-0.8,0.4-1.1c0.2-0.3,0.6-0.4,0.9-0.4c0.3,0,0.6,0.1,0.9,0.4c0.2,0.3,0.4,0.6,0.4,1.1H37.8z"/>
	<path class="st0" d="M47.5,71.6c-0.5-0.6-1.2-0.9-1.9-0.9c-0.8,0-1.4,0.3-2,0.9c-0.5,0.6-0.8,1.4-0.8,2.5c0,1.1,0.3,1.9,0.8,2.5
		c0.5,0.6,1.2,0.9,1.9,0.9c0.4,0,0.7-0.1,1.1-0.3c0.4-0.2,0.7-0.5,0.9-0.8v1h1.6v-8.9h-1.7V71.6z M47.1,75.6c-0.3,0.3-0.6,0.5-1,0.5
		c-0.5,0-0.9-0.2-1.2-0.7c-0.2-0.3-0.3-0.8-0.3-1.5c0-0.6,0.1-1.1,0.4-1.4s0.6-0.5,1-0.5c0.4,0,0.8,0.2,1,0.5
		c0.3,0.3,0.4,0.9,0.4,1.6C47.5,74.7,47.4,75.2,47.1,75.6z"/>
	<path class="st0" d="M57.5,70.6c-0.7,0-1.4,0.3-1.9,0.9v-3.2h-1.7v8.9h1.6v-1c0.3,0.4,0.6,0.6,0.9,0.8c0.4,0.2,0.7,0.3,1.1,0.3
		c0.8,0,1.4-0.3,1.9-0.9c0.5-0.6,0.8-1.5,0.8-2.6c0-1.1-0.3-1.9-0.8-2.5C58.9,70.9,58.3,70.6,57.5,70.6z M58.1,75.6
		c-0.3,0.3-0.6,0.5-1,0.5c-0.5,0-0.9-0.2-1.2-0.7c-0.2-0.3-0.3-0.8-0.3-1.5c0-0.7,0.1-1.1,0.4-1.5c0.3-0.3,0.6-0.5,1-0.5
		c0.4,0,0.8,0.2,1,0.5c0.3,0.3,0.4,0.9,0.4,1.6C58.5,74.7,58.3,75.3,58.1,75.6z"/>
	<path class="st0" d="M63.9,75.4l-1.6-4.6h-1.8l2.5,6.5c-0.1,0.4-0.2,0.7-0.4,0.9c-0.2,0.2-0.5,0.4-0.9,0.4c-0.2,0-0.5,0-0.7-0.1
		l0.2,1.3c0.3,0.1,0.6,0.1,1,0.1c0.3,0,0.6,0,0.9-0.1c0.3-0.1,0.5-0.2,0.7-0.3c0.2-0.1,0.3-0.3,0.5-0.5c0.1-0.2,0.3-0.5,0.4-0.9
		l0.4-1.1l2.3-6.2h-1.8L63.9,75.4z"/>
	<path class="st0" d="M77.2,66.2l-4.5,11.6h2.5l1-2.6h4.6l1,2.6h2.5l-4.6-11.6H77.2z M76.8,73.2l1.6-4.3l1.6,4.3H76.8z"/>
	<path class="st0" d="M88.2,69.5c-0.3,0.2-0.6,0.6-1,1.1v-1.2h-2.1v8.4h2.2v-2.6c0-1.4,0.1-2.4,0.2-2.8c0.1-0.4,0.3-0.8,0.5-0.9
		c0.2-0.2,0.5-0.3,0.8-0.3c0.3,0,0.7,0.1,1,0.4l0.7-1.9c-0.5-0.3-1-0.4-1.5-0.4C88.8,69.2,88.4,69.3,88.2,69.5z"/>
	<rect x="91.3" y="66.2" class="st0" width="2.2" height="2.1"/>
	<rect x="91.3" y="69.4" class="st0" width="2.2" height="8.4"/>
	<path class="st0" d="M97.5,75.9l1.1-1.2l3.2-3.7v-1.6h-6.9v1.8l3,0c0.4,0,0.8,0,1,0c-0.2,0.2-0.6,0.7-1.1,1.3l-3.1,3.6v1.7h7.5v-2
		h-3.4C98.5,75.9,98.1,75.9,97.5,75.9z"/>
	<path class="st0" d="M107.1,69.2c-0.8,0-1.6,0.2-2.2,0.5c-0.7,0.4-1.2,0.9-1.5,1.6c-0.4,0.7-0.5,1.4-0.5,2.1c0,1,0.2,1.8,0.5,2.5
		c0.4,0.7,0.9,1.2,1.6,1.5c0.7,0.3,1.4,0.5,2.2,0.5c1.2,0,2.3-0.4,3.1-1.3c0.8-0.8,1.2-1.9,1.2-3.2c0-1.3-0.4-2.3-1.2-3.1
		C109.4,69.7,108.4,69.2,107.1,69.2z M108.6,75.5c-0.4,0.4-0.9,0.7-1.5,0.7s-1.1-0.2-1.5-0.7s-0.6-1.1-0.6-1.9
		c0-0.8,0.2-1.5,0.6-1.9c0.4-0.4,0.9-0.7,1.5-0.7s1.1,0.2,1.5,0.7c0.4,0.4,0.6,1.1,0.6,1.9C109.2,74.5,109,75.1,108.6,75.5z"/>
	<path class="st0" d="M120,70.2c-0.2-0.3-0.5-0.5-0.9-0.7c-0.4-0.2-0.9-0.3-1.3-0.3c-1.1,0-2,0.5-2.8,1.4v-1.2h-2.1v8.4h2.2V74
		c0-0.9,0.1-1.6,0.2-1.9c0.1-0.3,0.3-0.6,0.6-0.8c0.3-0.2,0.7-0.3,1-0.3c0.3,0,0.6,0.1,0.8,0.2c0.2,0.1,0.4,0.4,0.5,0.6
		c0.1,0.3,0.1,0.9,0.1,1.8v4.3h2.2v-5.2c0-0.6,0-1.1-0.1-1.5C120.4,70.8,120.2,70.5,120,70.2z"/>
	<path class="st0" d="M129.4,75.1l0-2.6c0-1-0.1-1.6-0.3-2s-0.5-0.7-1-0.9c-0.5-0.2-1.2-0.4-2.2-0.4c-1.1,0-1.9,0.2-2.5,0.6
		c-0.6,0.4-0.9,1-1.2,1.8l2,0.4c0.1-0.4,0.3-0.7,0.5-0.8c0.2-0.2,0.5-0.2,0.9-0.2c0.6,0,1,0.1,1.2,0.3c0.2,0.2,0.3,0.5,0.3,0.9v0.2
		c-0.4,0.2-1.1,0.4-2.2,0.5c-0.8,0.1-1.4,0.3-1.8,0.5c-0.4,0.2-0.7,0.5-1,0.9c-0.2,0.4-0.3,0.8-0.3,1.3c0,0.7,0.2,1.3,0.7,1.8
		s1.2,0.7,2,0.7c0.5,0,1-0.1,1.4-0.3c0.4-0.2,0.8-0.5,1.2-0.8c0,0,0,0.1,0.1,0.3c0.1,0.3,0.2,0.5,0.2,0.7h2.2
		c-0.2-0.4-0.3-0.8-0.4-1.1S129.4,75.8,129.4,75.1z M127.2,74.2c0,0.5,0,0.9-0.1,1.1c-0.1,0.3-0.3,0.5-0.5,0.7
		c-0.4,0.3-0.7,0.4-1.1,0.4c-0.4,0-0.7-0.1-0.9-0.3c-0.2-0.2-0.3-0.5-0.3-0.8c0-0.3,0.1-0.6,0.4-0.8c0.2-0.1,0.6-0.3,1.2-0.4
		c0.6-0.1,1.1-0.2,1.4-0.3V74.2z"/>
	<path class="st0" d="M143.7,71.4c-0.5-0.3-1.4-0.6-2.5-0.8c-1.1-0.3-1.9-0.5-2.2-0.8c-0.2-0.2-0.3-0.4-0.3-0.7
		c0-0.3,0.1-0.5,0.4-0.7c0.4-0.3,0.9-0.4,1.6-0.4c0.7,0,1.2,0.1,1.5,0.4c0.3,0.3,0.5,0.7,0.6,1.3l2.3-0.1c0-1.1-0.4-1.9-1.2-2.6
		c-0.7-0.6-1.8-1-3.3-1c-0.9,0-1.7,0.1-2.3,0.4c-0.6,0.3-1.1,0.7-1.4,1.2c-0.3,0.5-0.5,1.1-0.5,1.7c0,0.9,0.4,1.7,1.1,2.3
		c0.5,0.5,1.4,0.8,2.6,1.1c1,0.2,1.6,0.4,1.9,0.5c0.4,0.1,0.7,0.3,0.8,0.5c0.2,0.2,0.2,0.4,0.2,0.7c0,0.4-0.2,0.8-0.6,1.1
		c-0.4,0.3-1,0.5-1.7,0.5c-0.7,0-1.3-0.2-1.7-0.5c-0.4-0.4-0.7-0.9-0.8-1.7l-2.3,0.2c0.2,1.3,0.6,2.3,1.4,3c0.8,0.7,1.9,1,3.4,1
		c1,0,1.8-0.1,2.5-0.4s1.2-0.7,1.6-1.3c0.4-0.6,0.6-1.2,0.6-1.9c0-0.7-0.2-1.3-0.5-1.8C144.7,72.1,144.3,71.7,143.7,71.4z"/>
	<path class="st0" d="M150.1,76.2c-0.1,0-0.3,0-0.4-0.1c-0.1-0.1-0.2-0.2-0.2-0.3c0-0.1,0-0.5,0-1.2v-3.4h1.5v-1.8h-1.5v-3l-2.2,1.3
		v1.7h-1v1.8h1v3.7c0,0.8,0,1.3,0.1,1.6c0.1,0.4,0.2,0.7,0.3,0.9c0.2,0.2,0.4,0.4,0.7,0.5c0.3,0.1,0.7,0.2,1.1,0.2
		c0.7,0,1.2-0.1,1.8-0.3L151,76C150.6,76.1,150.3,76.2,150.1,76.2z"/>
	<path class="st0" d="M159,75.1l0-2.6c0-1-0.1-1.6-0.3-2s-0.5-0.7-1-0.9c-0.5-0.2-1.2-0.4-2.2-0.4c-1.1,0-1.9,0.2-2.5,0.6
		c-0.6,0.4-0.9,1-1.2,1.8l2,0.4c0.1-0.4,0.3-0.7,0.5-0.8c0.2-0.2,0.5-0.2,0.9-0.2c0.6,0,1,0.1,1.2,0.3c0.2,0.2,0.3,0.5,0.3,0.9v0.2
		c-0.4,0.2-1.1,0.4-2.2,0.5c-0.8,0.1-1.4,0.3-1.8,0.5c-0.4,0.2-0.7,0.5-1,0.9c-0.2,0.4-0.3,0.8-0.3,1.3c0,0.7,0.2,1.3,0.7,1.8
		s1.2,0.7,2,0.7c0.5,0,1-0.1,1.4-0.3c0.4-0.2,0.8-0.5,1.2-0.8c0,0,0,0.1,0.1,0.3c0.1,0.3,0.2,0.5,0.2,0.7h2.2
		c-0.2-0.4-0.3-0.8-0.4-1.1S159,75.8,159,75.1z M156.9,74.2c0,0.5,0,0.9-0.1,1.1c-0.1,0.3-0.3,0.5-0.5,0.7c-0.4,0.3-0.7,0.4-1.1,0.4
		c-0.4,0-0.7-0.1-0.9-0.3c-0.2-0.2-0.3-0.5-0.3-0.8c0-0.3,0.1-0.6,0.4-0.8c0.2-0.1,0.6-0.3,1.2-0.4c0.6-0.1,1.1-0.2,1.4-0.3V74.2z"
		/>
	<path class="st0" d="M163.9,76.2c-0.1,0-0.3,0-0.4-0.1c-0.1-0.1-0.2-0.2-0.2-0.3c0-0.1,0-0.5,0-1.2v-3.4h1.5v-1.8h-1.5v-3l-2.2,1.3
		v1.7h-1v1.8h1v3.7c0,0.8,0,1.3,0.1,1.6c0.1,0.4,0.2,0.7,0.3,0.9c0.2,0.2,0.4,0.4,0.7,0.5c0.3,0.1,0.7,0.2,1.1,0.2
		c0.7,0,1.2-0.1,1.8-0.3l-0.2-1.7C164.4,76.1,164.1,76.2,163.9,76.2z"/>
	<path class="st0" d="M172.3,70.5c-0.7-0.8-1.7-1.2-3-1.2c-1.1,0-2,0.4-2.8,1.2c-0.7,0.8-1.1,1.9-1.1,3.3c0,1.2,0.3,2.1,0.8,2.9
		c0.7,1,1.8,1.4,3.2,1.4c0.9,0,1.7-0.2,2.3-0.6c0.6-0.4,1.1-1,1.3-1.9l-2.2-0.4c-0.1,0.4-0.3,0.7-0.5,0.9c-0.2,0.2-0.5,0.3-0.9,0.3
		c-0.5,0-0.9-0.2-1.3-0.5c-0.3-0.4-0.5-0.9-0.5-1.5h5.6C173.3,72.6,173,71.3,172.3,70.5z M167.8,72.9c0-0.6,0.2-1.1,0.5-1.4
		c0.3-0.4,0.7-0.5,1.2-0.5c0.5,0,0.8,0.2,1.2,0.5c0.3,0.3,0.5,0.8,0.5,1.5H167.8z"/>
	<path class="st0" d="M187,72.6c0,0.9,0,1.6-0.1,2c-0.1,0.4-0.3,0.7-0.6,1c-0.3,0.3-0.8,0.4-1.5,0.4c-0.7,0-1.2-0.1-1.5-0.4
		c-0.4-0.3-0.6-0.7-0.7-1.1c-0.1-0.3-0.1-0.9-0.1-1.9v-6.3h-2.3v6.2c0,1.3,0.1,2.3,0.2,2.9c0.1,0.4,0.3,0.9,0.7,1.3
		c0.3,0.4,0.8,0.7,1.4,1c0.6,0.3,1.4,0.4,2.5,0.4c0.9,0,1.7-0.1,2.2-0.4c0.6-0.2,1-0.5,1.4-0.9s0.6-0.9,0.7-1.5
		c0.1-0.6,0.2-1.6,0.2-3v-6.1H187V72.6z"/>
	<path class="st0" d="M198.6,70.2c-0.2-0.3-0.5-0.5-0.9-0.7c-0.4-0.2-0.9-0.3-1.3-0.3c-1.1,0-2,0.5-2.8,1.4v-1.2h-2.1v8.4h2.2V74
		c0-0.9,0.1-1.6,0.2-1.9c0.1-0.3,0.3-0.6,0.6-0.8c0.3-0.2,0.7-0.3,1-0.3c0.3,0,0.6,0.1,0.8,0.2c0.2,0.1,0.4,0.4,0.5,0.6
		c0.1,0.3,0.1,0.9,0.1,1.8v4.3h2.2v-5.2c0-0.6,0-1.1-0.1-1.5C199,70.8,198.9,70.5,198.6,70.2z"/>
	<rect x="201.2" y="66.2" class="st0" width="2.2" height="2.1"/>
	<rect x="201.2" y="69.4" class="st0" width="2.2" height="8.4"/>
	<path class="st0" d="M209.2,73.7c-0.1,0.2-0.2,0.5-0.2,0.7c0,0.1-0.1,0.4-0.2,0.7l-0.5-1.4l-1.6-4.3h-2.3l3.4,8.4h2l3.3-8.4h-2.3
		L209.2,73.7z"/>
	<path class="st0" d="M220.3,70.5c-0.7-0.8-1.7-1.2-3-1.2c-1.1,0-2,0.4-2.8,1.2c-0.7,0.8-1.1,1.9-1.1,3.3c0,1.2,0.3,2.1,0.8,2.9
		c0.7,1,1.8,1.4,3.2,1.4c0.9,0,1.7-0.2,2.3-0.6c0.6-0.4,1.1-1,1.3-1.9l-2.2-0.4c-0.1,0.4-0.3,0.7-0.5,0.9c-0.2,0.2-0.5,0.3-0.9,0.3
		c-0.5,0-0.9-0.2-1.3-0.5c-0.3-0.4-0.5-0.9-0.5-1.5h5.6C221.4,72.6,221,71.3,220.3,70.5z M215.8,72.9c0-0.6,0.2-1.1,0.5-1.4
		c0.3-0.4,0.7-0.5,1.2-0.5c0.5,0,0.8,0.2,1.2,0.5c0.3,0.3,0.5,0.8,0.5,1.5H215.8z"/>
	<path class="st0" d="M226.8,69.2c-0.4,0-0.7,0.1-1,0.3c-0.3,0.2-0.6,0.6-1,1.1v-1.2h-2.1v8.4h2.2v-2.6c0-1.4,0.1-2.4,0.2-2.8
		c0.1-0.4,0.3-0.8,0.5-0.9c0.2-0.2,0.5-0.3,0.8-0.3c0.3,0,0.7,0.1,1,0.4l0.7-1.9C227.8,69.4,227.3,69.2,226.8,69.2z"/>
	<path class="st0" d="M232.8,72.6c-1.2-0.3-1.9-0.5-2.1-0.6c-0.1-0.1-0.2-0.2-0.2-0.4c0-0.2,0.1-0.3,0.3-0.5
		c0.3-0.2,0.7-0.2,1.3-0.2c0.5,0,0.8,0.1,1.1,0.3c0.3,0.2,0.4,0.4,0.5,0.8l2.1-0.4c-0.2-0.7-0.6-1.3-1.2-1.7
		c-0.6-0.4-1.4-0.6-2.6-0.6c-1.2,0-2.1,0.2-2.7,0.7c-0.6,0.5-0.9,1.1-0.9,1.8c0,0.8,0.3,1.4,1,1.9c0.5,0.3,1.6,0.7,3.4,1.1
		c0.4,0.1,0.6,0.2,0.7,0.3c0.1,0.1,0.2,0.3,0.2,0.4c0,0.2-0.1,0.4-0.3,0.6c-0.3,0.2-0.7,0.3-1.3,0.3c-0.5,0-0.9-0.1-1.2-0.3
		c-0.3-0.2-0.5-0.6-0.6-1l-2.2,0.3c0.2,0.8,0.6,1.4,1.3,1.9c0.7,0.5,1.6,0.7,2.7,0.7c1.3,0,2.2-0.3,2.9-0.8c0.6-0.6,1-1.2,1-2
		c0-0.7-0.2-1.3-0.7-1.7C234.8,73.2,234,72.8,232.8,72.6z"/>
	<rect x="237.6" y="66.2" class="st0" width="2.2" height="2.1"/>
	<rect x="237.6" y="69.4" class="st0" width="2.2" height="8.4"/>
	<path class="st0" d="M244.8,76.2c-0.1,0-0.3,0-0.4-0.1c-0.1-0.1-0.2-0.2-0.2-0.3c0-0.1,0-0.5,0-1.2v-3.4h1.5v-1.8h-1.5v-3l-2.2,1.3
		v1.7h-1v1.8h1v3.7c0,0.8,0,1.3,0.1,1.6c0.1,0.4,0.2,0.7,0.3,0.9c0.2,0.2,0.4,0.4,0.7,0.5c0.3,0.1,0.7,0.2,1.1,0.2
		c0.7,0,1.2-0.1,1.8-0.3l-0.2-1.7C245.3,76.1,245,76.2,244.8,76.2z"/>
	<path class="st0" d="M250.3,75.4l-2-6h-2.4l3.2,8.4c-0.1,0.5-0.3,0.9-0.6,1.2c-0.2,0.3-0.6,0.5-1.1,0.5c-0.3,0-0.6,0-0.9-0.1
		l0.2,1.7c0.4,0.1,0.8,0.1,1.3,0.1c0.4,0,0.8,0,1.1-0.1c0.3-0.1,0.6-0.2,0.8-0.4c0.2-0.2,0.4-0.4,0.6-0.6c0.2-0.3,0.4-0.6,0.6-1.1
		l0.5-1.5l3-8.1h-2.3L250.3,75.4z"/>
	<path class="st0" d="M2.1,40.7C1.7,42.3,0.3,44,0,45.8c19.6-9.5,50.8-0.1,50.8-0.1C26.9,37.7,6.8,40,2.1,40.7z"/>
	<path class="st0" d="M48.4,44.4c0,0,0.1,0,0.1,0.1C48.5,44.4,48.5,44.4,48.4,44.4z"/>
	<path class="st0" d="M48.4,44.4c-19.9-8.8-40.1-9.8-44.5-9.9c-0.6,1.6-2.1,2.1-2.6,3.8C25.2,34.7,46.7,43.6,48.4,44.4z"/>
	<path class="st0" d="M6.7,27.8c-0.8,1.5-2.5,2-3.2,3.6c20-0.2,42.6,11.4,42.6,11.4C31,33,11.7,28.8,6.7,27.8z"/>
	<path class="st0" d="M10,22.1c-0.8,1.3-2.7,1.5-3.5,2.9C25,26.8,43.9,40.8,43.9,40.8C30.1,30,14.3,23.6,10,22.1z"/>
	<path class="st0" d="M14,16.8c-1,1.1-3,1.2-3.9,2.5c15.6,3.5,32.7,19.8,32.7,19.8C30.6,24.8,15.8,17.6,14,16.8z"/>
	<path class="st0" d="M41,36.2c-8.4-13.2-19.4-22.1-22.5-24.2c-0.9,0.9-3,0.7-3.9,1.8C26.3,17.3,41,36.2,41,36.2z"/>
	<path class="st0" d="M40.1,33.4C33.7,19.3,25.8,9.9,23.7,7.8c-0.8,0.6-2.8,0.2-3.6,0.9C30.5,15.2,40.1,33.4,40.1,33.4z"/>
	<path class="st0" d="M40,30.9C35.3,16.4,30.2,6.4,28.9,4.4c-0.9,0.5-3,0.1-4,0.8C33.9,13.1,39.3,28.9,40,30.9z"/>
	<path class="st0" d="M40,30.9c0,0.1,0.1,0.1,0.1,0.2C40.1,31.1,40.1,31,40,30.9z"/>
	<path class="st0" d="M34.1,1.7C33.3,2,31.2,1.4,30,2.1c7.1,11.3,10.2,26.2,10.2,26.2C37.9,12.4,34.9,3.3,34.1,1.7z"/>
	<path class="st0" d="M38.5,0.8l-3.1,0c4.1,3.6,5.4,23.3,5.4,23.3C41.2,7.6,38.5,0.8,38.5,0.8z"/>
</g>
</svg>
